# xmcd CD database file
#
# Track frame offsets:
#	150
#	21817
#	34645
#	49395
#	68440
#	84417
#	99130
#	111570
#	126907
#	142932
#
# Disc length: 2145 seconds
#
# Revision: 2
# Processed by: cddbd v1.4PL0 Copyright (c) Steve Scherf et al.
# Submitted via: CDex 1.50
#
DISCID=7c085f0a
DTITLE=Merle Haggard and Willie Nelson - Pancho and Lefty
DYEAR=1982
DGENRE=Country
TTITLE0=Pancho and Lefty
TTITLE1=It's My Lazy Day
TTITLE2=My Mary
TTITLE3=Half A Man
TTITLE4=Reasons To Quit
TTITLE5=No Reason To Quit
TTITLE6=Still Water Runs The Depest
TTITLE7=My Life's Been A Pleasure
TTITLE8=All The Soft Places To Fall
TTITLE9=Opportunity To Cry
EXTD=YEAR: 1982
EXTT0=
EXTT1=
EXTT2=
EXTT3=
EXTT4=
EXTT5=
EXTT6=
EXTT7=
EXTT8=
EXTT9=
PLAYORDER=
